<?xml version="1.0" encoding="UTF-8"?>
<svg id="Camada_2" data-name="Camada 2" xmlns="http://www.w3.org/2000/svg" viewBox="0 0 190.54 33.01">
  <defs>
    <style>
      .cls-1 {
        fill: #faf9f3;
      }

      .cls-1, .cls-2, .cls-3 {
        stroke-width: 0px;
      }

      .cls-2 {
        fill: #7747ff;
      }

      .cls-3 {
        fill: #f5f3ec;
      }
    </style>
  </defs>
  <g id="Camada_2-2" data-name="Camada 2">
    <g id="Camada_1-2" data-name="Camada 1-2">
      <path class="cls-1" d="M69.15,0v16.63c-.03,4.18-1.64,8.35-4.83,11.54-3.22,3.22-7.45,4.83-11.67,4.83s-8.44-1.61-11.67-4.83L22.89,10.1c-1.64-1.64-3.91-2.66-6.41-2.66-5.01,0-9.06,4.06-9.06,9.06v16.5H0v-16.5C0,7.4,7.39,0,16.5,0,21.05,0,25.18,1.86,28.16,4.85l18.06,18.06c3.54,3.54,9.28,3.54,12.82,0,1.8-1.8,2.68-4.16,2.65-6.52V0h7.46Z"/>
      <path class="cls-1" d="M122.75,0c-9.11,0-16.5,7.39-16.5,16.5s7.39,16.5,16.5,16.5,16.5-7.39,16.5-16.5S131.86,0,122.75,0ZM122.73,25.57c-5,0-9.06-4.06-9.06-9.06s4.06-9.06,9.06-9.06,9.07,4.06,9.07,9.06-4.06,9.06-9.07,9.06Z"/>
      <path class="cls-1" d="M89.07,25.56h9.07v7.44h-9.05c-9.11,0-16.5-7.39-16.5-16.5S79.98,0,89.09,0c4.55,0,8.68,1.85,11.67,4.83,1.8,1.8,3.19,4.02,4,6.49l-10.42,10.42-5.25-5.25,6.4-6.4c-1.64-1.65-3.91-2.67-6.42-2.67-5.01,0-9.06,4.06-9.06,9.06s4.06,9.06,9.06,9.06h0Z"/>
      <path class="cls-1" d="M141.62,4.54c-.32,0-.61-.06-.88-.18-.28-.12-.51-.28-.72-.49-.21-.21-.37-.45-.49-.72-.12-.28-.18-.57-.18-.88s.06-.61.18-.88c.12-.28.28-.51.49-.72.21-.21.45-.37.72-.49.27-.12.57-.18.88-.18s.61.06.88.18c.27.12.51.28.72.49.21.21.37.45.49.72s.18.57.18.88-.06.61-.18.88c-.12.28-.28.51-.49.72-.21.21-.45.37-.72.49-.28.12-.57.18-.88.18ZM141.62,4c.32,0,.61-.08.87-.23s.47-.36.62-.62c.15-.26.23-.55.23-.87s-.08-.61-.23-.87-.36-.47-.62-.62-.55-.23-.87-.23-.61.08-.87.23c-.26.15-.47.36-.62.62s-.23.55-.23.87.08.61.23.87c.15.26.36.47.62.62.26.15.55.23.87.23ZM140.83,3.3V1.21h1.06c.09,0,.18.02.28.07.1.05.18.12.25.22s.11.22.11.37-.04.28-.11.39-.16.19-.27.24c-.11.06-.2.08-.29.08h-.77v-.34h.62c.06,0,.13-.03.2-.09.07-.06.11-.16.11-.28s-.04-.22-.11-.26c-.08-.04-.14-.07-.19-.07h-.44v1.75h-.46.01ZM142.09,2.31l.52.99h-.5l-.51-.99h.5-.01Z"/>
      <path class="cls-2" d="M190.54,32.89h-25.09c-9.04,0-16.44-7.4-16.44-16.44S156.41,0,165.46,0h8.64c9.04,0,16.44,7.4,16.44,16.44v16.44h0Z"/>
      <path class="cls-1" d="M165.71,7.99h3.31v2.48c0,2.88-2.34,5.21-5.22,5.21h-6.51c.18-2.03,1.08-3.85,2.44-5.22,1.31-1.31,3.06-2.2,5-2.42.32-.04.65-.06.98-.06"/>
      <path class="cls-1" d="M169.02,22.39v2.51h-3.31c-.33,0-.66-.02-.98-.06-3.95-.46-7.08-3.63-7.44-7.61v-.06h6.51c2.88,0,5.22,2.34,5.22,5.22"/>
      <path class="cls-1" d="M170.5,10.48v-2.48h3.31c4.41,0,8.04,3.38,8.42,7.69h-6.51c-2.88,0-5.22-2.34-5.22-5.21"/>
      <path class="cls-1" d="M182.27,17.18v7.72h-11.76v-2.51c0-1.44.59-2.74,1.53-3.69.94-.94,2.25-1.53,3.69-1.53h6.55-.01Z"/>
      <g>
        <path class="cls-3" d="M173.85,29.79c0-.61.39-.86,1.24-1,.5-.08,1.05-.06,1.05-.63,0-.5-.38-.74-.89-.74-.66,0-1.01.32-1.04.81h-.21c.03-.46.32-.98,1.25-.98.6,0,1.08.25,1.08,1v1.8c0,.28.04.39.23.39.05,0,.08,0,.12-.01v.17s-.1.01-.15.01c-.25,0-.39-.11-.39-.54h0c-.26.43-.69.6-1.21.6-.63,0-1.06-.34-1.06-.88h-.01ZM174.97,30.5c.81,0,1.17-.54,1.17-1.05v-.83c-.1.21-.5.28-.99.34-.63.08-1.1.26-1.1.77s.32.77.91.77h.01Z"/>
        <path class="cls-3" d="M176.98,29.57h.21c.03.56.46.93,1.19.93.62,0,.99-.3.99-.77,0-.57-.54-.63-1.12-.8-.68-.2-1.15-.34-1.15-.88,0-.48.38-.79,1.1-.79.86,0,1.18.46,1.26.92h-.21c-.08-.38-.34-.76-1.06-.76-.48,0-.88.17-.88.6,0,.48.49.58,1.08.74.7.19,1.18.37,1.18.95s-.46.96-1.21.96c-.86,0-1.36-.5-1.37-1.1h-.01Z"/>
        <path class="cls-3" d="M179.93,29.57h.21c.03.56.46.93,1.19.93.62,0,.99-.3.99-.77,0-.57-.54-.63-1.12-.8-.68-.2-1.15-.34-1.15-.88,0-.48.38-.79,1.1-.79.86,0,1.18.46,1.26.92h-.21c-.08-.38-.34-.76-1.06-.76-.48,0-.88.17-.88.6,0,.48.49.58,1.08.74.7.19,1.18.37,1.18.95s-.46.96-1.21.96c-.86,0-1.36-.5-1.37-1.1h-.01Z"/>
        <path class="cls-3" d="M183.04,26.25h.36v.36h-.36v-.36ZM183.12,27.31h.19v3.29h-.19v-3.29Z"/>
        <path class="cls-3" d="M183.91,29.57h.21c.03.56.46.93,1.19.93.62,0,.99-.3.99-.77,0-.57-.54-.63-1.12-.8-.68-.2-1.15-.34-1.15-.88,0-.48.38-.79,1.1-.79.86,0,1.18.46,1.26.92h-.21c-.08-.38-.34-.76-1.06-.76-.48,0-.88.17-.88.6,0,.48.49.58,1.08.74.7.19,1.18.37,1.18.95s-.46.96-1.21.96c-.86,0-1.36-.5-1.37-1.1h-.01Z"/>
        <path class="cls-3" d="M187.2,29.83v-2.35h-.48v-.17h.48v-1.1h.19v1.1h.73v.17h-.73v2.32c0,.54.11.65.52.65.08,0,.14,0,.21-.01v.16c-.09.01-.17.02-.24.02-.48,0-.68-.15-.68-.79h0Z"/>
      </g>
    </g>
  </g>
</svg>