<?xml version="1.0" encoding="UTF-8"?>
<svg xmlns="http://www.w3.org/2000/svg" width="46" height="37" viewBox="0 0 46 37" fill="none">
  <path d="M45.8037 36.2651H18.1325C8.1605 36.2651 0 28.1046 0 18.1325C0 8.1605 8.1605 0 18.1325 0H27.6669C37.6389 0 45.7994 8.1605 45.7994 18.1325V36.2651H45.8037Z" fill="#7747FF"></path>
  <path d="M18.4158 8.80621H22.0691V11.5452C22.0691 14.7175 19.4905 17.2961 16.3139 17.2961H9.13281C9.33217 15.0555 10.3203 13.0446 11.8241 11.5408C13.2716 10.0933 15.1958 9.11824 17.341 8.87122C17.6964 8.82788 18.0561 8.81054 18.4201 8.81054" fill="white"></path>
  <path d="M22.0676 24.6895V27.4588H18.4142C18.0502 27.4588 17.6905 27.4371 17.3351 27.3981C12.9753 26.8954 9.53 23.3894 9.13129 18.9993C9.13129 18.9776 9.13129 18.9603 9.12695 18.9386H16.3124C19.489 18.9386 22.0676 21.5215 22.0676 24.6939" fill="white"></path>
  <path d="M23.7012 11.5452V8.80621H27.3502C32.217 8.80621 36.2128 12.5376 36.6375 17.2917H29.4564C26.2841 17.2917 23.7012 14.7132 23.7012 11.5408" fill="white"></path>
  <path d="M36.6765 18.9343V27.4545H23.7012V24.6852C23.7012 23.0991 24.3469 21.6602 25.387 20.6201C26.4271 19.58 27.8659 18.9343 29.4521 18.9343H36.6722H36.6765Z" fill="white"></path>
</svg>
